<mxfile host="65bd71144e">
    <diagram id="QoAL-WF8ToeO7BGmdnfq" name="Page-1">
        <mxGraphModel dx="1393" dy="671" grid="0" gridSize="10" guides="1" tooltips="1" connect="1" arrows="1" fold="1" page="1" pageScale="1" pageWidth="850" pageHeight="1100" background="#ffffff" math="0" shadow="0">
            <root>
                <mxCell id="0"/>
                <mxCell id="1" parent="0"/>
                <mxCell id="48" value="&lt;font color=&quot;#3333ff&quot;&gt;Second Filter&lt;/font&gt;" style="whiteSpace=wrap;html=1;strokeColor=#000000;strokeWidth=1;fontColor=#000000;fillColor=#FFFFFF;gradientColor=none;align=right;verticalAlign=bottom;fontSize=20;" vertex="1" parent="1">
                    <mxGeometry x="1130" y="340" width="204" height="330" as="geometry"/>
                </mxCell>
                <mxCell id="13" value="First Filter" style="whiteSpace=wrap;html=1;strokeColor=#000000;strokeWidth=1;fontColor=#3333FF;fillColor=#FFFFFF;verticalAlign=bottom;align=right;fontSize=20;" vertex="1" parent="1">
                    <mxGeometry x="30" y="340" width="620" height="330" as="geometry"/>
                </mxCell>
                <mxCell id="27" style="edgeStyle=none;html=1;exitX=1;exitY=0.5;exitDx=0;exitDy=0;entryX=0;entryY=0.5;entryDx=0;entryDy=0;strokeColor=#000000;strokeWidth=1;fontColor=#000000;" edge="1" parent="1" source="2" target="25">
                    <mxGeometry relative="1" as="geometry"/>
                </mxCell>
                <mxCell id="2" value="Connect to the API&lt;br&gt;(Worl Bank)" style="whiteSpace=wrap;html=1;fillColor=#FFFFFF;strokeColor=#000000;strokeWidth=2;fontColor=#000000;" vertex="1" parent="1">
                    <mxGeometry x="30" y="160" width="120" height="60" as="geometry"/>
                </mxCell>
                <mxCell id="24" style="edgeStyle=none;html=1;exitX=1;exitY=0.5;exitDx=0;exitDy=0;entryX=0;entryY=0.5;entryDx=0;entryDy=0;strokeColor=#000000;strokeWidth=2;fontColor=#000000;" edge="1" parent="1" source="6" target="7">
                    <mxGeometry relative="1" as="geometry"/>
                </mxCell>
                <mxCell id="6" value="select_relevant_projects&lt;br&gt;(PowerBI database)" style="whiteSpace=wrap;html=1;strokeColor=#000000;strokeWidth=2;fontColor=#000000;fillColor=#FFFFFF;" vertex="1" parent="1">
                    <mxGeometry x="30" y="250" width="160" height="60" as="geometry"/>
                </mxCell>
                <mxCell id="22" style="edgeStyle=none;html=1;exitX=1;exitY=0.5;exitDx=0;exitDy=0;entryX=0;entryY=0.5;entryDx=0;entryDy=0;strokeColor=#000000;fontColor=#000000;spacing=2;strokeWidth=2;" edge="1" parent="1" source="7" target="8">
                    <mxGeometry relative="1" as="geometry"/>
                </mxCell>
                <mxCell id="29" style="edgeStyle=none;html=1;exitX=0.5;exitY=1;exitDx=0;exitDy=0;entryX=0.5;entryY=0;entryDx=0;entryDy=0;strokeColor=#000000;strokeWidth=2;fontColor=#000000;" edge="1" parent="1" source="7" target="33">
                    <mxGeometry relative="1" as="geometry"/>
                </mxCell>
                <mxCell id="31" style="edgeStyle=none;html=1;exitX=1;exitY=0.5;exitDx=0;exitDy=0;entryX=0;entryY=0.5;entryDx=0;entryDy=0;strokeColor=#000000;strokeWidth=2;fontColor=#000000;" edge="1" parent="1" source="33" target="12">
                    <mxGeometry relative="1" as="geometry"/>
                </mxCell>
                <mxCell id="7" value="data_estructure_metadata" style="whiteSpace=wrap;html=1;strokeColor=#000000;strokeWidth=2;fontColor=#000000;fillColor=#FFFFFF;" vertex="1" parent="1">
                    <mxGeometry x="285" y="250" width="150" height="60" as="geometry"/>
                </mxCell>
                <mxCell id="8" value="output:&lt;br&gt;__.csv" style="ellipse;whiteSpace=wrap;html=1;strokeColor=#000000;strokeWidth=2;fontColor=#000000;fillColor=#FFFFFF;" vertex="1" parent="1">
                    <mxGeometry x="510" y="240" width="80" height="80" as="geometry"/>
                </mxCell>
                <mxCell id="30" style="edgeStyle=none;html=1;exitX=0.5;exitY=1;exitDx=0;exitDy=0;entryX=0.5;entryY=0;entryDx=0;entryDy=0;strokeColor=#000000;strokeWidth=2;fontColor=#000000;" edge="1" parent="1" source="9" target="10">
                    <mxGeometry relative="1" as="geometry"/>
                </mxCell>
                <mxCell id="9" value="download_pdf_txts" style="whiteSpace=wrap;html=1;strokeColor=#000000;strokeWidth=2;fontColor=#000000;fillColor=#FFFFFF;" vertex="1" parent="1">
                    <mxGeometry x="55" y="370" width="135" height="60" as="geometry"/>
                </mxCell>
                <mxCell id="10" value="output:&lt;br&gt;is digital project" style="ellipse;whiteSpace=wrap;html=1;strokeColor=#000000;strokeWidth=2;fontColor=#000000;fillColor=#FFFFFF;" vertex="1" parent="1">
                    <mxGeometry x="82.5" y="500" width="80" height="80" as="geometry"/>
                </mxCell>
                <mxCell id="11" value="output:&lt;br&gt;is digital project" style="ellipse;whiteSpace=wrap;html=1;strokeColor=#000000;strokeWidth=2;fontColor=#000000;fillColor=#FFFFFF;" vertex="1" parent="1">
                    <mxGeometry x="507" y="500" width="80" height="80" as="geometry"/>
                </mxCell>
                <mxCell id="32" style="edgeStyle=none;html=1;exitX=0.5;exitY=1;exitDx=0;exitDy=0;entryX=0.5;entryY=0;entryDx=0;entryDy=0;strokeColor=#000000;strokeWidth=2;fontColor=#000000;" edge="1" parent="1" source="12" target="11">
                    <mxGeometry relative="1" as="geometry"/>
                </mxCell>
                <mxCell id="35" style="edgeStyle=none;html=1;exitX=1;exitY=0.5;exitDx=0;exitDy=0;entryX=0;entryY=0.5;entryDx=0;entryDy=0;strokeColor=#000000;strokeWidth=2;fontColor=#000000;" edge="1" parent="1" source="12" target="14">
                    <mxGeometry relative="1" as="geometry"/>
                </mxCell>
                <mxCell id="12" value="work_with_online_files" style="whiteSpace=wrap;html=1;strokeColor=#000000;strokeWidth=2;fontColor=#000000;fillColor=#FFFFFF;gradientColor=none;" vertex="1" parent="1">
                    <mxGeometry x="477" y="370" width="140" height="60" as="geometry"/>
                </mxCell>
                <mxCell id="38" style="edgeStyle=none;html=1;exitX=0.5;exitY=1;exitDx=0;exitDy=0;entryX=0.5;entryY=0;entryDx=0;entryDy=0;strokeColor=#000000;strokeWidth=2;fontColor=#000000;" edge="1" parent="1" source="14" target="15">
                    <mxGeometry relative="1" as="geometry"/>
                </mxCell>
                <mxCell id="14" value="extract_project_components&lt;br&gt;_and_description&lt;br&gt;(regex)" style="whiteSpace=wrap;html=1;strokeColor=#000000;strokeWidth=2;fontColor=#000000;fillColor=#FFFFFF;" vertex="1" parent="1">
                    <mxGeometry x="700" y="370" width="170" height="60" as="geometry"/>
                </mxCell>
                <mxCell id="39" style="edgeStyle=none;html=1;exitX=0.5;exitY=1;exitDx=0;exitDy=0;entryX=0.5;entryY=0;entryDx=0;entryDy=0;strokeColor=#000000;strokeWidth=2;fontColor=#000000;" edge="1" parent="1" source="15" target="17">
                    <mxGeometry relative="1" as="geometry"/>
                </mxCell>
                <mxCell id="44" style="edgeStyle=none;html=1;exitX=1;exitY=0.5;exitDx=0;exitDy=0;strokeColor=#000000;strokeWidth=2;fontColor=#000000;entryX=0;entryY=0.5;entryDx=0;entryDy=0;" edge="1" parent="1" source="15" target="18">
                    <mxGeometry relative="1" as="geometry">
                        <mxPoint x="850" y="520" as="targetPoint"/>
                        <Array as="points">
                            <mxPoint x="890" y="510"/>
                            <mxPoint x="890" y="400"/>
                        </Array>
                    </mxGeometry>
                </mxCell>
                <mxCell id="15" value="is right?" style="rhombus;whiteSpace=wrap;html=1;strokeColor=#000000;strokeWidth=2;fontColor=#000000;fillColor=#FFFFFF;" vertex="1" parent="1">
                    <mxGeometry x="745" y="470" width="80" height="80" as="geometry"/>
                </mxCell>
                <mxCell id="37" style="edgeStyle=none;html=1;exitX=0;exitY=0.5;exitDx=0;exitDy=0;entryX=0;entryY=0.75;entryDx=0;entryDy=0;strokeColor=#000000;strokeWidth=2;fontColor=#000000;" edge="1" parent="1" source="17" target="14">
                    <mxGeometry relative="1" as="geometry">
                        <Array as="points">
                            <mxPoint x="670" y="620"/>
                            <mxPoint x="670" y="415"/>
                        </Array>
                    </mxGeometry>
                </mxCell>
                <mxCell id="17" value="azure_form_recognizer" style="whiteSpace=wrap;html=1;strokeColor=#000000;strokeWidth=2;fontColor=#000000;fillColor=#FFFFFF;" vertex="1" parent="1">
                    <mxGeometry x="715" y="590" width="140" height="60" as="geometry"/>
                </mxCell>
                <mxCell id="41" style="edgeStyle=none;html=1;exitX=0.5;exitY=1;exitDx=0;exitDy=0;entryX=0.5;entryY=0;entryDx=0;entryDy=0;strokeColor=#000000;strokeWidth=2;fontColor=#000000;" edge="1" parent="1" source="18" target="19">
                    <mxGeometry relative="1" as="geometry"/>
                </mxCell>
                <mxCell id="18" value="project_components" style="whiteSpace=wrap;html=1;strokeColor=#000000;strokeWidth=2;fontColor=#000000;fillColor=#FFFFFF;" vertex="1" parent="1">
                    <mxGeometry x="940" y="375" width="160" height="50" as="geometry"/>
                </mxCell>
                <mxCell id="42" style="edgeStyle=none;html=1;exitX=0.5;exitY=1;exitDx=0;exitDy=0;entryX=0.5;entryY=0;entryDx=0;entryDy=0;strokeColor=#000000;strokeWidth=2;fontColor=#000000;" edge="1" parent="1" source="19" target="20">
                    <mxGeometry relative="1" as="geometry"/>
                </mxCell>
                <mxCell id="45" style="edgeStyle=none;html=1;exitX=1;exitY=0.5;exitDx=0;exitDy=0;entryX=0;entryY=0.5;entryDx=0;entryDy=0;strokeColor=#000000;strokeWidth=2;fontColor=#000000;" edge="1" parent="1" source="19" target="21">
                    <mxGeometry relative="1" as="geometry">
                        <Array as="points">
                            <mxPoint x="1120" y="505"/>
                            <mxPoint x="1120" y="400"/>
                        </Array>
                    </mxGeometry>
                </mxCell>
                <mxCell id="19" value="less than 8K tokens?" style="rhombus;whiteSpace=wrap;html=1;strokeColor=#000000;strokeWidth=2;fontColor=#000000;fillColor=#FFFFFF;" vertex="1" parent="1">
                    <mxGeometry x="970" y="455" width="100" height="100" as="geometry"/>
                </mxCell>
                <mxCell id="43" style="edgeStyle=none;html=1;exitX=0;exitY=0.5;exitDx=0;exitDy=0;entryX=0;entryY=0.75;entryDx=0;entryDy=0;strokeColor=#000000;strokeWidth=2;fontColor=#000000;" edge="1" parent="1" source="20" target="18">
                    <mxGeometry relative="1" as="geometry">
                        <Array as="points">
                            <mxPoint x="910" y="620"/>
                            <mxPoint x="910" y="410"/>
                        </Array>
                    </mxGeometry>
                </mxCell>
                <mxCell id="20" value="chat_completition&amp;nbsp;&lt;br&gt;summarize" style="whiteSpace=wrap;html=1;strokeColor=#000000;strokeWidth=2;fontColor=#000000;fillColor=#FFFFFF;" vertex="1" parent="1">
                    <mxGeometry x="960" y="590" width="120" height="60" as="geometry"/>
                </mxCell>
                <mxCell id="52" style="edgeStyle=none;html=1;exitX=0.5;exitY=1;exitDx=0;exitDy=0;entryX=0.5;entryY=0;entryDx=0;entryDy=0;strokeColor=#000000;strokeWidth=2;fontSize=20;fontColor=#3333FF;" edge="1" parent="1" source="21" target="47">
                    <mxGeometry relative="1" as="geometry"/>
                </mxCell>
                <mxCell id="21" value="OPENAIL AI service:&amp;nbsp;&lt;br&gt;clasification 6 pillars" style="whiteSpace=wrap;html=1;strokeColor=#000000;strokeWidth=2;fontColor=#000000;fillColor=#FFFFFF;" vertex="1" parent="1">
                    <mxGeometry x="1170" y="370" width="120" height="60" as="geometry"/>
                </mxCell>
                <mxCell id="28" style="edgeStyle=none;html=1;exitX=0.5;exitY=1;exitDx=0;exitDy=0;entryX=0.5;entryY=0;entryDx=0;entryDy=0;strokeColor=#000000;strokeWidth=2;fontColor=#000000;" edge="1" parent="1" source="25" target="7">
                    <mxGeometry relative="1" as="geometry"/>
                </mxCell>
                <mxCell id="25" value="Download_metadata" style="whiteSpace=wrap;html=1;strokeColor=#000000;strokeWidth=2;fontColor=#000000;fillColor=#FFFFFF;" vertex="1" parent="1">
                    <mxGeometry x="300" y="160" width="120" height="60" as="geometry"/>
                </mxCell>
                <mxCell id="34" style="edgeStyle=none;html=1;exitX=0;exitY=0.5;exitDx=0;exitDy=0;entryX=1;entryY=0.5;entryDx=0;entryDy=0;strokeColor=#000000;strokeWidth=2;fontColor=#000000;" edge="1" parent="1" source="33" target="9">
                    <mxGeometry relative="1" as="geometry"/>
                </mxCell>
                <mxCell id="33" value="gpt_classification (full_pdf)" style="whiteSpace=wrap;html=1;strokeColor=#000000;strokeWidth=2;fontColor=#000000;fillColor=#FFFFFF;" vertex="1" parent="1">
                    <mxGeometry x="300" y="370" width="120" height="60" as="geometry"/>
                </mxCell>
                <mxCell id="47" value="output:&lt;br&gt;is digital project" style="ellipse;whiteSpace=wrap;html=1;strokeColor=#000000;strokeWidth=2;fontColor=#000000;fillColor=#FFFFFF;" vertex="1" parent="1">
                    <mxGeometry x="1190" y="470" width="80" height="80" as="geometry"/>
                </mxCell>
                <mxCell id="49" value="" style="whiteSpace=wrap;html=1;strokeColor=none;strokeWidth=1;fontSize=20;fontColor=#333333;fillColor=#FFFFFF;" vertex="1" parent="1">
                    <mxGeometry x="1334" y="670" width="15" height="15" as="geometry"/>
                </mxCell>
                <mxCell id="50" value="" style="whiteSpace=wrap;html=1;strokeColor=none;strokeWidth=1;fontSize=20;fontColor=#333333;fillColor=#FFFFFF;" vertex="1" parent="1">
                    <mxGeometry x="15" y="670" width="15" height="15" as="geometry"/>
                </mxCell>
                <mxCell id="51" value="" style="whiteSpace=wrap;html=1;strokeColor=none;strokeWidth=1;fontSize=20;fontColor=#333333;fillColor=#FFFFFF;" vertex="1" parent="1">
                    <mxGeometry x="15" y="145" width="15" height="15" as="geometry"/>
                </mxCell>
            </root>
        </mxGraphModel>
    </diagram>
</mxfile>